<?xml version="1.0" encoding="UTF-8"?>
<svg id="Capa_2" data-name="Capa 2" xmlns="http://www.w3.org/2000/svg" viewBox="0 0 170.54 186.84">
  <defs>
    <style>
      .cls-1 {
        fill: #a2348b;
      }

      .cls-2 {
        fill: #5a4696;
      }
    </style>
  </defs>
  <g id="svg8">
    <path id="path24" class="cls-1" d="m96.71,154.7c0-.66.64-1.36,1.42-1.56.78-.2,2.16-1.65,3.06-3.22,1.61-2.81,1.64-3.45,1.64-39.69v-36.84l-3.25.03c-7.55.06-16.88,3.42-21.91,7.87-8.19,7.26-14.46,26.03-10.01,29.97,3.29,2.92,2.16,3.37-8.37,3.37-9.87,0-12.72-.74-9.56-2.47,4.88-2.68,7.35-7.44,17.18-33.16,1.74-4.54,3.45-8.92,3.8-9.75,1.72-3.97,10.66-27.44,11.72-30.75,2.02-6.34,1.94-7.74-.61-10.71-1.04-1.21-1.67-2.42-1.4-2.68.27-.26,4.06-.48,8.43-.48,7.39,0,8.06.12,9.63,1.79.93.99,3,5.29,4.6,9.56,1.6,4.27,5.03,13.09,7.62,19.58l4.71,11.81h18.38c10.11,0,19.41-.29,20.67-.63,3.97-1.1,4.2-.68,4.2,7.82,0,9.3-.52,9.68-5.98,4.25-2.58-2.57-4.6-3.83-7.23-4.5-4.24-1.09-27.33-1.3-27.33-.25,0,.59,1.78,5.3,9.31,24.55,2.04,5.23,4.48,7.36,8.4,7.36,3.16,0,3.08.06,7.82-5.62,1.39-1.66,1.49-1.67,2.48-.35.92,1.24,1.02,7.16.34,20.44-.1,1.84-2.06.89-4.81-2.33-3.41-4-5.77-4.51-17.56-3.78l-8.27.51v15.18c0,17.03.45,19.1,4.92,22.6,1.45,1.13,2.46,2.33,2.25,2.66-.21.33-6.21.6-13.33.6-11.34,0-12.95-.15-12.95-1.2h0Zm28.87-47.21c-1.86-.4-4.67-1.37-6.26-2.16-1.59-.79-3.02-1.44-3.19-1.44s-.3,1.01-.3,2.25v2.25l6.56-.09c6.15-.08,6.35-.14,3.19-.81h0Zm-43.55-36.58c3.13-1.46,7.15-2.58,11.33-3.14,4.01-.54,6.49-1.21,6.49-1.76,0-.49-.66-2.54-1.46-4.55-.8-2.01-3.07-8.13-5.04-13.58-1.97-5.46-3.81-9.67-4.09-9.38-.28.3-1.58,3.58-2.88,7.3-7.23,20.58-9.56,27.37-9.39,27.37.11,0,2.37-1.02,5.04-2.27h0Z"/>
  </g>
  <g id="Capa_2-2" data-name="Capa 2">
    <path id="path24-2" data-name="path24" class="cls-2" d="m76.82,185.83c-15.33-2.96-29.37-9.28-40.5-18.26-11.74-9.46-20.14-19.82-26.57-32.76C2.38,119.98.01,109.62,0,92.06c-.01-16.17,2.11-26.06,8.58-39.93,8.91-19.1,24.22-34.64,43.03-43.68C64.75,2.15,74.02.04,88.82,0c11.6-.03,18.64,1.03,29.44,4.42,6.6,2.08,7.87,3.75,2.25,2.97-8.58-1.19-14.64-1.35-20.26-.53-15.24,2.23-30.67,9.88-42.42,21.04-15,14.25-23.1,30.56-26.03,52.43-1.17,8.75.45,22.22,3.95,32.73,7.28,21.9,22.31,38.73,43.52,48.76,9.53,4.51,17.16,6.42,27.55,6.91,10.86.51,19.22-.6,28.56-3.79,11.19-3.83,17.92-8.01,26.51-16.43,8.64-8.48,10.12-9.29,7.44-4.09-3.89,7.57-13.83,18.23-24.64,26.43-8.38,6.36-23.34,12.67-35.56,15.01-6.94,1.33-25.38,1.32-32.31-.02h0Z"/>
  </g>
</svg>